# xmcd
#
# Track frame offsets:
#  150
#  25795
#  47330
#  72893
#  95197
#  123397
#  151902
#  174396
#  202341
#  218161
#
# Disc length: 3134 seconds
#
# Revision: 0
# Processed by: cddbd v1.5.2PL0 Copyright (c) Steve Scherf et al.
# Submitted via: Collectorz.com_Music_Collector 6.11
#
DISCID=890c3c0a
DTITLE=Percy Howard - Meridiem - A Pleasant Fiction
DYEAR=2004
DGENRE=
TTITLE0=The Girl on the Back of the Motorcycle
TTITLE1=Melting
TTITLE2=Chase the Blues Away
TTITLE3=The East
TTITLE4=Brilliant Ending
TTITLE5=A Pleasant Fiction
TTITLE6=Can I Get a Witness ?
TTITLE7=Carlotta
TTITLE8=Where You Stand
TTITLE9=Give Me Everything
EXTD=
EXTT0=
EXTT1=
EXTT2=
EXTT3=
EXTT4=
EXTT5=
EXTT6=
EXTT7=
EXTT8=
EXTT9=
PLAYORDER=
